<svg width="238" height="92" viewBox="0 0 238 92" fill="none" xmlns="http://www.w3.org/2000/svg">
<path d="M90.0734 39.775C92.0734 43.525 93.0734 47.75 93.0734 52.45C93.0734 58.3 91.7234 63.275 89.0234 67.375C87.5234 69.475 85.6234 71.125 83.3234 72.325C81.0734 73.475 78.6484 74.05 76.0484 74.05C74.0984 74.05 72.2984 73.7 70.6484 73C69.0484 72.25 67.6734 71.2 66.5234 69.85V86.5H57.5234V32.5H65.1734V37.375C66.2734 35.525 67.7984 34.075 69.7484 33.025C71.6984 31.975 73.8234 31.45 76.1234 31.45C79.2234 31.45 81.9484 32.175 84.2984 33.625C86.6484 35.025 88.5734 37.075 90.0734 39.775ZM74.1734 66.325C77.5234 66.325 79.9484 65.15 81.4484 62.8C82.9984 60.4 83.7234 57.25 83.6234 53.35C83.7234 49.5 83.1984 46.375 82.0484 43.975C80.9484 41.525 78.9984 40 76.1984 39.4C75.4984 39.25 74.8484 39.175 74.2484 39.175C71.4484 39.175 69.4484 40.4 68.2484 42.85C67.0984 45.3 66.5234 48.8 66.5234 53.35C66.5234 57.15 67.1234 60.275 68.3234 62.725C69.5734 65.125 71.5234 66.325 74.1734 66.325ZM96.8281 40.375H103.578V64.375C103.578 67.775 104.578 70.25 106.578 71.8C108.628 73.35 111.153 74.125 114.153 74.125C115.503 74.125 116.828 73.975 118.128 73.675C119.478 73.375 120.653 72.95 121.653 72.4V65.2C119.403 65.85 117.778 66.175 116.778 66.175C115.428 66.175 114.403 65.75 113.703 64.9C113.003 64 112.653 62.5 112.653 60.4V40.375H121.653V32.5H112.653V21.25H103.578V26.125C103.578 28.175 103.303 29.75 102.753 30.85C102.203 31.95 101.128 32.5 99.5281 32.5H96.8281V40.375ZM198.148 73H189.148V48.775C189.148 42.825 187.573 39.85 184.423 39.85C182.123 39.85 180.273 40.875 178.873 42.925C177.473 44.925 176.773 47.325 176.773 50.125V73H167.773V48.775C167.773 42.825 166.198 39.85 163.048 39.85C160.748 39.85 158.898 40.875 157.498 42.925C156.098 44.925 155.398 47.325 155.398 50.125V73H146.398V32.5H154.273V38.425H154.873C155.773 36.125 157.123 34.375 158.923 33.175C160.723 31.975 162.798 31.375 165.148 31.375C167.548 31.375 169.598 31.85 171.298 32.8C172.998 33.7 174.323 35.375 175.273 37.825L175.498 38.425C176.748 36.125 178.323 34.375 180.223 33.175C182.123 31.975 184.223 31.375 186.523 31.375C189.773 31.375 192.223 32.15 193.873 33.7C195.573 35.25 196.698 37.35 197.248 40C197.848 42.65 198.148 46.025 198.148 50.125V73ZM207.898 73H216.823V55C216.823 45.15 219.848 40.225 225.898 40.225C227.648 40.225 229.523 40.6 231.523 41.35V32.2C230.023 31.65 228.323 31.375 226.423 31.375C223.923 31.375 221.873 31.975 220.273 33.175C218.673 34.325 217.398 36.075 216.448 38.425H215.773V32.5H207.898V73Z" fill="#333333"/>
<circle cx="133.5" cy="21" r="5" fill="#30D99D"/>
<rect x="129.15" y="32.5" width="9" height="40.56" fill="#333333"/>
<path d="M7 20C7 19.4477 7.44772 19 8 19H15C15.5523 19 16 19.4477 16 20V56H7V20Z" fill="#333333"/>
<path d="M38 45H47C47.5523 45 48 45.4477 48 46V56H38V45Z" fill="#333333"/>
<path d="M48 55C48 65.4934 38.8218 74 27.5 74C16.1782 74 7 65.4934 7 55C21 46.5 10.5 63.5 27.5 65C43.5 64 32.5 45.5 48 55Z" fill="#333333"/>
<path d="M38 41C38 40.4477 38.4477 40 39 40H41.5C42.0523 40 42.5 40.4477 42.5 41V45H38V41Z" fill="#333333"/>
<rect x="43.5" y="34" width="4.5" height="10" rx="1" fill="#544AC4"/>
<rect x="43.5" y="25" width="4.5" height="8" rx="1" fill="#30D99D"/>
<rect x="38" y="22" width="4.5" height="8" rx="1" fill="#FF947A"/>
<rect x="38" y="31" width="4.5" height="8" rx="1" fill="#FF6291"/>
</svg>
